<svg xmlns="http://www.w3.org/2000/svg" viewBox="99.5683 287.1254 735.7236 393.5199">
  <defs><style type="text/css">@import url(https://fonts.googleapis.com/css?family=Source+Sans+Pro);&#xa;</style></defs>
  <path d="m 5310.23,1560.27 c -161.83,-61.6 -337.61,-95.11 -521.25,-95.11 -815,0 -1475.7,660.7 -1475.7,1475.7 H 3146.8 l 523.4,414.06 375.07,-414.06 h -166.48 c 0,-502.74 407.5,-910.24 910.19,-910.24 84.11,0 165.51,11.41 242.39,32.86 L 4907.3,1753.75 Z" style="fill:#467dfe;fill-opacity:1;fill-rule:nonzero;stroke:none" id="path14" transform="matrix(0.1333333273728687, 0, 0, -0.1333333273728687, 0, 876.0000032633543)"/>
  <path d="m 5310.23,1560.27 c -161.83,-61.6 -337.61,-95.11 -521.25,-95.11 -815,0 -1475.7,660.7 -1475.7,1475.7 H 3146.8 l 523.4,414.06 375.07,-414.06 h -166.48 c 0,-502.74 407.5,-910.24 910.19,-910.24 84.11,0 165.51,11.41 242.39,32.86 L 4907.3,1753.75 Z" style="fill:none;stroke:#467dfe;stroke-width:7.5;stroke-linecap:butt;stroke-linejoin:round;stroke-miterlimit:10;stroke-dasharray:none;stroke-opacity:1" id="path16" transform="matrix(0.1333333273728687, 0, 0, -0.1333333273728687, 0, 876.0000032633543)"/>
  <path d="m 3332.77,3179.77 c 114.34,701.75 722.82,1236.79 1456.21,1236.79 268.91,0 521.02,-71.95 737.86,-197.73 l 83.28,144.22 96.87,-660.32 -546.13,-117.81 83.24,144.22 c -133.79,77.58 -289.26,121.95 -455.12,121.95 -423.59,0 -779.6,-289.37 -880.97,-681.44 l -206.21,262.3 z" style="fill:#eb696a;fill-opacity:1;fill-rule:nonzero;stroke:none" id="path24" transform="matrix(0.1333333273728687, 0, 0, -0.1333333273728687, 0, 876.0000032633543)"/>
  <path d="m 3332.77,3179.77 c 114.34,701.75 722.82,1236.79 1456.21,1236.79 268.91,0 521.02,-71.95 737.86,-197.73 l 83.28,144.22 96.87,-660.32 -546.13,-117.81 83.24,144.22 c -133.79,77.58 -289.26,121.95 -455.12,121.95 -423.59,0 -779.6,-289.37 -880.97,-681.44 l -206.21,262.3 z" style="fill:none;stroke:#eb696a;stroke-width:7.5;stroke-linecap:butt;stroke-linejoin:round;stroke-miterlimit:10;stroke-dasharray:none;stroke-opacity:1" id="path26" transform="matrix(0.1333333273728687, 0, 0, -0.1333333273728687, 0, 876.0000032633543)"/>
  <path d="m 5724.02,4082.54 c 330.08,-270.63 540.67,-681.56 540.67,-1141.68 0,-546.17 -296.68,-1023.01 -737.85,-1278.01 l 83.28,-144.18 -620.32,246.25 171.06,531.84 83.24,-144.18 c 272.15,157.3 455.12,451.4 455.12,788.28 0,253.87 -103.91,483.48 -271.56,648.55 l 330.23,47.43 z" style="fill:#92d050;fill-opacity:1;fill-rule:nonzero;stroke:none" id="path34" transform="matrix(0.1333333273728687, 0, 0, -0.1333333273728687, 0, 876.0000032633543)"/>
  <path d="m 5724.02,4082.54 c 330.08,-270.63 540.67,-681.56 540.67,-1141.68 0,-546.17 -296.68,-1023.01 -737.85,-1278.01 l 83.28,-144.18 -620.32,246.25 171.06,531.84 83.24,-144.18 c 272.15,157.3 455.12,451.4 455.12,788.28 0,253.87 -103.91,483.48 -271.56,648.55 l 330.23,47.43 z" style="fill:none;stroke:#92d050;stroke-width:7.5;stroke-linecap:butt;stroke-linejoin:round;stroke-miterlimit:10;stroke-dasharray:none;stroke-opacity:1" id="path36" transform="matrix(0.1333333273728687, 0, 0, -0.1333333273728687, 0, 876.0000032633543)"/>
  <path d="M 754.262 3182.42 L 2384.96 3182.42 L 2384.96 3544.8 L 2928.52 2940.86 L 2384.96 2336.88 L 2384.96 2699.26 L 754.262 2699.26 L 995.859 2940.86 L 754.262 3182.42 Z" style="fill:#9b9b9b;fill-opacity:1;fill-rule:nonzero;stroke:none" id="path50" transform="matrix(0.1333333273728687, 0, 0, -0.1333333273728687, 0, 876.0000032633543)"/>
  <path d="M 746.762 3182.42 L 2377.46 3182.42 L 2377.46 3544.8 L 2921.02 2940.86 L 2377.46 2336.88 L 2377.46 2699.26 L 746.762 2699.26 L 988.359 2940.86 L 746.762 3182.42 Z" style="fill:none;stroke:#9b9b9b;stroke-width:20;stroke-linecap:butt;stroke-linejoin:round;stroke-miterlimit:10;stroke-dasharray:none;stroke-opacity:1" id="path52" transform="matrix(0.1333333273728687, 0, 0, -0.1333333273728687, 0, 876.0000032633543)"/>
  <text style="fill: rgb(255, 255, 255); font-family: 'Source Sans Pro'; font-size: 17px; font-weight: 700; white-space: pre; transform-origin: 2961.83px -4891.69px;" transform="matrix(1.683527231218, -0.457152515648, 0.445577859879, 1.640901803971, -2379.438235896853, 5232.563781115915)" x="2943.97" y="-4885.12">Test</text>
  <text style="fill: rgb(255, 255, 255); font-family: 'Source Sans Pro'; font-size: 17px; font-weight: 700; white-space: pre;" transform="matrix(1.7444920077898645, 0, 0, 1.700322901691461, -4371.626383194724, 8806.690824111285)" x="2943.97" y="-4885.12">Code</text>
  <text style="fill: rgb(255, 255, 255); font-family: 'Source Sans Pro'; font-size: 17px; font-weight: 700; white-space: pre; transform-origin: 2980.2px -4891.69px;" transform="matrix(1.561862707137, 0.777069807052, -0.757395029067, 1.522317409515, -2433.286885845563, 5494.529260436804)" x="2943.97" y="-4885.12">Refactor</text>
  <text style="fill: rgb(255, 255, 255); font-family: 'Source Sans Pro'; font-size: 17px; font-weight: 700; white-space: pre;" transform="matrix(1.7444920077898645, 0, 0, 1.700322901691461, -4934.828443612966, 8797.768428643576)" x="2943.97" y="-4885.12">Plan</text>
</svg>
